<?xml version="1.0" encoding="UTF-8" standalone="no"?>
<svg
   width="205"
   height="45"
   viewBox="0 0 205.00001 45"
   fill="none"
   version="1.1"
   id="svg16"
   sodipodi:docname="bepaid_205_45.svg"
   inkscape:version="1.2.2 (b0a8486, 2022-12-01)"
   xmlns:inkscape="http://www.inkscape.org/namespaces/inkscape"
   xmlns:sodipodi="http://sodipodi.sourceforge.net/DTD/sodipodi-0.dtd"
   xmlns="http://www.w3.org/2000/svg"
   xmlns:svg="http://www.w3.org/2000/svg">
  <defs
     id="defs20" />
  <sodipodi:namedview
     id="namedview18"
     pagecolor="#ffffff"
     bordercolor="#000000"
     borderopacity="0.25"
     inkscape:showpageshadow="2"
     inkscape:pageopacity="0.0"
     inkscape:pagecheckerboard="0"
     inkscape:deskcolor="#d1d1d1"
     showgrid="false"
     inkscape:zoom="0.89056604"
     inkscape:cx="499.6822"
     inkscape:cy="133.06144"
     inkscape:window-width="1681"
     inkscape:window-height="1051"
     inkscape:window-x="0"
     inkscape:window-y="38"
     inkscape:window-maximized="1"
     inkscape:current-layer="svg16" />
  <g
     id="g123"
     transform="translate(17.285995)">
    <path
       fill-rule="evenodd"
       clip-rule="evenodd"
       d="m 46.362702,39.037221 c -8.722589,0 -15.793826,-7.071236 -15.793826,-15.793996 L 46.362702,7.4493654 c 8.72276,0 15.793996,7.0711676 15.793996,15.7938596 0,1.365755 -0.173404,2.69093 -0.499242,3.954723 H 39.214568 c 1.395934,2.493313 4.062823,4.178597 7.123411,4.178597 h 11.739698 v 7.660676 c -1.338986,0 -10.429187,0 -11.714975,0 z m -0.02472,-23.97695 c 3.080707,0 5.762771,1.707774 7.150862,4.228232 H 39.186946 c 1.388091,-2.520458 4.070155,-4.228232 7.151033,-4.228232 z"
       fill="#000000"
       id="path2"
       style="stroke-width:0.170506" />
    <path
       fill-rule="evenodd"
       clip-rule="evenodd"
       d="M 7.939403,0.996094 H 0.04962125 L 0,23.152686 v 0.598648 c 0,8.721566 7.05364,15.79178 15.754746,15.79178 8.701139,0 15.754814,-7.070214 15.754814,-15.79178 0,-8.721669 -7.053675,-15.7919162 -15.754814,-15.7919162 -3.297677,0 -6.4119399,1.2672197 -7.815343,2.3794492 z m 7.790534,30.887366 c 4.494494,0 8.137872,-3.652074 8.137872,-8.15702 0,-4.505117 -3.643378,-8.157088 -8.137872,-8.157088 -4.494426,0 -8.1378894,3.651971 -8.1378894,8.157088 0,4.504946 3.6434634,8.15702 8.1378894,8.15702 z"
       fill="#000000"
       id="path4"
       style="stroke-width:0.170506" />
    <path
       fill-rule="evenodd"
       clip-rule="evenodd"
       d="m 170.3784,0.996094 h -7.88984 v 9.342773 c -1.40344,-1.1122295 -4.51774,-2.3794492 -7.81533,-2.3794492 -8.7011,0 -15.75478,7.0702472 -15.75478,15.7919162 0,8.512014 6.7188,15.451108 15.13056,15.779674 l 16.379,-16.379004 z M 146.5602,23.72644 c 0,4.504946 3.64338,8.15702 8.13793,8.15702 4.49437,0 8.13775,-3.652074 8.13775,-8.15702 0,-4.505117 -3.64338,-8.157088 -8.13775,-8.157088 -4.49455,0 -8.13793,3.651971 -8.13793,8.157088 z"
       fill="#000000"
       id="path6"
       style="stroke-width:0.170506" />
    <path
       fill-rule="evenodd"
       clip-rule="evenodd"
       d="m 71.794395,45.996094 h -7.889837 l -0.04962,-22.156608 v -0.598477 c 0,-8.721686 7.053674,-15.7919335 15.75478,-15.7919335 8.701105,0 15.754779,7.0702475 15.754779,15.7919335 0,8.721566 -7.053674,15.791779 -15.754779,15.791779 -3.297762,0 -6.412059,-1.267202 -7.815326,-2.379415 z m 7.790432,-30.887348 c 4.494545,0 8.137923,3.65204 8.137923,8.156986 0,4.505117 -3.643378,8.157191 -8.137923,8.157191 -4.494375,0 -8.137924,-3.652074 -8.137924,-8.157191 0,-4.504946 3.643549,-8.156986 8.137924,-8.156986 z"
       fill="#000000"
       id="path8"
       style="stroke-width:0.170506" />
    <path
       fill-rule="evenodd"
       clip-rule="evenodd"
       d="m 119.32558,39.037733 h 7.99435 l 0.0503,-14.945387 v -0.678785 c 0,-8.816504 -7.14728,-15.9637182 -15.96382,-15.9637182 -8.81637,0 -15.963647,7.1472142 -15.963647,15.9637182 0,8.816538 7.147277,15.96382 15.963647,15.96382 l 7.91917,-7.918993 z m -7.89393,-23.844842 c -4.55405,0 -8.24586,3.691853 -8.24586,8.245905 0,4.554052 3.69181,8.245683 8.24586,8.245683 4.55405,0 8.24585,-3.691631 8.24585,-8.245683 0,-4.554052 -3.6918,-8.245905 -8.24585,-8.245905 z"
       fill="#000000"
       id="path10"
       style="stroke-width:0.170506" />
    <path
       d="m 129.43336,15.218722 h 7.83186 v 23.81884 h -7.83186 z"
       fill="#000000"
       id="path12"
       style="stroke-width:0.170506" />
    <path
       d="m 129.40812,0.996094 h 7.83733 V 8.83345 h -7.83733 z"
       fill="#ff8e09"
       id="path14"
       style="stroke-width:0.170506" />
  </g>
</svg>
